:SAMPLES-PER-SECOND 30
:FULLY-SPECIFIED
:DEGREES
78
root  -3.15415 39.3626 -1.53341 20.2716 -74.7807 -26.7362
RightUpLeg  4.05623 -3.15186 8.13154
RightLeg  15.0118 -29.9898 -3.84052
RightFoot  -11.5557 -0.0733418 2.69442
RightToes  -3.1126e-008 1.75238e-005 3.56266e-009
Spine  -6.27926 -3.70267 7.9326
Spine1  24.6924 -5.68202 6.28667
HEad  -23.2772 -6.80374 -0.080067
LeftShoulder1  3.77174 -7.67923 -27.662
LeftArm  -21.2336 8.53228 -55.4616
LeftForeArm  20.4732 -68.2751 -27.5932
LeftHand  0.373908 0.299392 -8.60455
RightShoulder  3.69518 7.18625 28.6162
RightArm  -13.4896 -19.3661 48.8181
RightForeArm  22.5556 38.5025 7.50603
RightHand  -0.204809 3.86461 -2.8341
LeftUpLeg  -8.71683 1.21793 12.5471
LeftLeg  31.7042 -4.29527 -2.52642
LeftFoot  -14.6678 -0.0776346 -5.69901
LeftToes  4.78349e-008 1.46828e-008 1.33736e-009
79
root  -3.03136 39.2365 -1.58625 19.7703 -73.3222 -27.3512
RightUpLeg  4.5874 -3.4674 8.82161
RightLeg  15.9782 -31.0736 -4.18807
RightFoot  -11.9696 -0.0653421 2.90023
RightToes  -3.1126e-008 1.75238e-005 3.56266e-009
Spine  -5.76938 -3.35706 9.13634
Spine1  25.7764 -5.09816 5.79569
HEad  -24.9657 -8.27016 0.605573
LeftShoulder1  3.83035 -7.71519 -28.0877
LeftArm  -17.725 -0.520945 -54.6602
LeftForeArm  18.7162 -72.2464 -37.1338
LeftHand  0.483774 -0.570779 -9.40615
RightShoulder  3.67053 7.15345 28.4877
RightArm  -11.5308 -19.061 47.5748
RightForeArm  21.7117 37.7839 7.34836
RightHand  -0.241414 3.79497 -3.30796
LeftUpLeg  -9.21071 0.000513051 13.3639
LeftLeg  33.6266 -4.61041 -2.95687
LeftFoot  -14.8502 -0.0959516 -6.0321
LeftToes  4.78349e-008 1.46828e-008 1.33736e-009
80
root  -2.96624 39.2178 -1.63607 18.5673 -72.7204 -26.8493
RightUpLeg  5.01095 -3.6152 8.95504
RightLeg  16.4711 -31.648 -4.49084
RightFoot  -12.0413 -0.063773 2.93449
RightToes  -3.1126e-008 1.75238e-005 3.56266e-009
Spine  -5.1299 -3.04399 9.16427
Spine1  25.5116 -4.49243 5.38726
HEad  -24.0487 -9.3514 1.09288
LeftShoulder1  3.97309 -7.97478 -28.5727
LeftArm  -16.3266 -9.62536 -54.9185
LeftForeArm  16.751 -73.8621 -43.6564
LeftHand  0.635594 -1.56013 -10.4742
RightShoulder  3.69973 7.30015 28.287
RightArm  -10.5257 -19.5364 46.9699
RightForeArm  22.6292 36.4899 6.93509
RightHand  -0.258424 4.30137 -3.3794
LeftUpLeg  -8.94934 -0.615002 13.4728
LeftLeg  33.9294 -4.60326 -2.9896
LeftFoot  -14.8384 -0.105249 -6.35573
LeftToes  4.78349e-008 1.46828e-008 1.33736e-009
81
root  -2.92842 39.303 -1.6474 16.6209 -73.0261 -25.1235
RightUpLeg  5.39612 -3.79013 8.29196
RightLeg  16.1679 -31.3319 -4.38048
RightFoot  -11.7733 -0.0683045 3.01719
RightToes  -3.1126e-008 1.75238e-005 3.56266e-009
Spine  -4.90551 -2.98404 8.08188
Spine1  24.9695 -4.16851 4.97228
HEad  -22.5085 -8.87829 1.33318
LeftShoulder1  4.10005 -8.35698 -28.5303
LeftArm  -17.915 -17.2148 -56.2004
LeftForeArm  15.3173 -74.356 -46.3835
LeftHand  0.817334 -2.70516 -11.511
RightShoulder  3.70459 7.54667 27.5369
RightArm  -10.1703 -19.0126 47.5498
RightForeArm  23.7186 33.0443 5.95826
RightHand  -0.203096 4.49971 -2.66116
LeftUpLeg  -7.9825 -0.601672 12.7319
LeftLeg  32.6178 -4.3157 -2.63761
LeftFoot  -14.5257 -0.0844058 -6.15272
LeftToes  4.78349e-008 1.46828e-008 1.33736e-009
82
root  -2.91055 39.4435 -1.62165 14.7605 -73.8771 -22.9315
RightUpLeg  5.45569 -3.79492 7.35082
RightLeg  15.3627 -30.686 -4.11857
RightFoot  -11.2249 -0.0791819 2.89851
RightToes  -3.1126e-008 1.75238e-005 3.56266e-009
Spine  -4.50297 -3.19434 6.80575
Spine1  23.2872 -3.99687 4.15334
HEad  -20.4537 -7.40602 0.889889
LeftShoulder1  4.0736 -8.56907 -27.6737
LeftArm  -21.3855 -22.6861 -57.8056
LeftForeArm  14.9928 -74.3629 -46.5153
LeftHand  0.842053 -3.51051 -10.7253
RightShoulder  3.63927 7.47959 27.1355
RightArm  -10.613 -18.4616 48.4074
RightForeArm  24.8967 29.734 5.08707
RightHand  -0.135763 3.80133 -1.97793
LeftUpLeg  -6.85145 0.0166753 11.6264
LeftLeg  30.3029 -3.88413 -2.12259
LeftFoot  -14.131 -0.0488332 -5.48072
LeftToes  4.78349e-008 1.46828e-008 1.33736e-009
83
root  -2.91975 39.6179 -1.53064 12.9554 -75.0775 -20.601
RightUpLeg  5.39073 -3.87953 6.12038
RightLeg  14.4398 -29.4589 -3.67592
RightFoot  -10.4432 -0.0951196 3.11275
RightToes  -3.1126e-008 1.75238e-005 3.56266e-009
Spine  -4.339 -3.60106 5.39922
Spine1  21.5733 -4.10941 3.38835
HEad  -18.556 -5.38115 0.253702
LeftShoulder1  3.82334 -8.27693 -26.3432
LeftArm  -25.7574 -26.8946 -59.1304
LeftForeArm  13.0682 -73.8034 -44.3323
LeftHand  0.725027 -3.65759 -9.03042
RightShoulder  3.59577 7.43384 26.8666
RightArm  -11.2273 -18.3406 48.921
RightForeArm  25.7943 27.9083 4.62117
RightHand  -0.0982554 3.5265 -1.53405
LeftUpLeg  -5.37891 0.545761 10.3102
LeftLeg  27.2633 -3.05374 -1.38531
LeftFoot  -13.8128 -0.0257691 -5.03304
LeftToes  4.78349e-008 1.46828e-008 1.33736e-009
84
root  -2.91544 39.829 -1.37686 12.2358 -76.4018 -19.3263
RightUpLeg  5.29338 -4.03038 4.86047
RightLeg  13.3346 -27.656 -2.81421
RightFoot  -9.13778 -0.12931 3.47411
RightToes  -3.1126e-008 1.75238e-005 3.56266e-009
Spine  -4.61557 -4.03001 4.55673
Spine1  20.6349 -4.33517 2.498
HEad  -17.7448 -4.01072 -1.3584
LeftShoulder1  3.57676 -7.77441 -25.5782
LeftArm  -30.5017 -30.0677 -59.5296
LeftForeArm  9.8498 -72.9892 -41.713
LeftHand  0.634277 -3.6535 -7.8873
RightShoulder  3.53097 7.2699 26.7626
RightArm  -12.1055 -18.6357 49.0486
RightForeArm  25.027 28.0096 4.6875
RightHand  -0.113184 2.84279 -1.80989
LeftUpLeg  -3.76838 1.01758 9.16478
LeftLeg  23.8251 -1.88808 -0.591933
LeftFoot  -13.3382 -0.00181089 -4.67549
LeftToes  4.78349e-008 1.46828e-008 1.33736e-009
85
root  -2.88908 40.0966 -1.1561 13.4578 -78.1624 -19.8227
RightUpLeg  4.83179 -4.12144 3.63501
RightLeg  12.3043 -25.21 -1.78906
RightFoot  -7.2645 -0.203536 4.29476
RightToes  -3.1126e-008 1.75238e-005 3.56266e-009
Spine  -5.40562 -4.17396 3.93045
Spine1  20.4605 -4.55118 2.10924
HEad  -17.7553 -3.24812 -3.07699
LeftShoulder1  3.39345 -7.21748 -25.5088
LeftArm  -35.5175 -32.394 -59.2612
LeftForeArm  6.50695 -71.7297 -38.0705
LeftHand  0.579389 -3.94641 -6.92586
RightShoulder  3.52196 7.25734 26.7175
RightArm  -12.9414 -18.8232 48.5431
RightForeArm  24.8132 28.7388 4.86467
RightHand  -0.176237 3.4536 -2.55854
LeftUpLeg  -2.21088 1.69703 8.25288
LeftLeg  20.01 -0.531314 0.102568
LeftFoot  -11.9923 0.0467287 -4.47696
LeftToes  4.78349e-008 1.46828e-008 1.33736e-009
86
root  -2.84618 40.3767 -0.926839 16.4639 -80.4992 -22.3732
RightUpLeg  4.31873 -3.9919 2.64489
RightLeg  11.7269 -22.5013 -1.21194
RightFoot  -5.05761 -0.319363 5.2085
RightToes  -3.1126e-008 1.75238e-005 3.56266e-009
Spine  -5.39903 -3.95152 3.0613
Spine1  19.7331 -4.47469 2.19318
HEad  -18.4441 -2.33177 -4.21587
LeftShoulder1  3.26134 -6.87433 -25.2728
LeftArm  -40.2943 -32.6597 -58.523
LeftForeArm  3.8958 -70.3247 -34.6389
LeftHand  0.410378 -3.61499 -5.05543
RightShoulder  3.5058 7.05388 27.2118
RightArm  -12.1519 -19.2889 46.9578
RightForeArm  24.6437 30.0961 5.18819
RightHand  -0.242613 4.31379 -3.19084
LeftUpLeg  -0.32659 2.68284 7.53815
LeftLeg  16.1514 1.02311 0.662902
LeftFoot  -10.1089 0.108742 -4.47157
LeftToes  4.78349e-008 1.46828e-008 1.33736e-009
87
root  -2.73878 40.6099 -0.660721 22.3965 -82.6592 -27.9367
RightUpLeg  3.4959 -4.17105 1.69011
RightLeg  11.6967 -19.7424 -0.58828
RightFoot  -3.02544 -0.444791 5.81194
RightToes  -3.1126e-008 1.75238e-005 3.56266e-009
Spine  -4.92203 -3.7506 1.98661
Spine1  18.7364 -4.62107 2.95654
HEad  -18.523 -1.78389 -5.74313
LeftShoulder1  3.11065 -6.48252 -24.982
LeftArm  -44.564 -31.1594 -58.1408
LeftForeArm  2.8885 -68.9331 -31.6544
LeftHand  0.286962 -3.51913 -3.48676
RightShoulder  3.4973 7.09913 26.9825
RightArm  -11.4779 -19.8618 46.1498
RightForeArm  22.8167 31.3147 5.5799
RightHand  -0.329344 3.97347 -4.33609
LeftUpLeg  1.21002 3.66891 6.97565
LeftLeg  12.8173 2.5703 0.9722
LeftFoot  -8.34585 0.160509 -4.24957
LeftToes  4.78349e-008 1.46828e-008 1.33736e-009
